<svg width="24" height="24" viewBox="0 0 24 24" fill="none" xmlns="http://www.w3.org/2000/svg">
<g id="icon / jam-icons / outline &#38; logos / tags">
<path id="Vector" d="M11.586 18.0709L13 16.6569L14.414 18.0709L20.579 11.9059L21.669 8.3539L19.185 5.8709L18.106 6.2069L16.508 4.6089L18.591 3.9599C18.9391 3.85173 19.3102 3.84076 19.6641 3.92818C20.018 4.01559 20.3413 4.19808 20.599 4.4559L23.082 6.9389C23.3387 7.19566 23.5207 7.51747 23.6085 7.86981C23.6962 8.22215 23.6864 8.59173 23.58 8.9389L22.345 12.9699L14.415 20.8999L11.585 18.0719L11.586 18.0709ZM14.236 3.7499L16.718 6.2329C16.9747 6.48966 17.1567 6.81147 17.2445 7.16381C17.3322 7.51615 17.3224 7.88573 17.216 8.2329L15.981 12.2609L8.051 20.1919L0.270996 12.4139L8.17 4.5159L12.227 3.2539C12.5751 3.14573 12.9462 3.13476 13.3001 3.22218C13.654 3.30959 13.9773 3.49208 14.235 3.7499H14.236ZM3.1 12.4139L8.05 17.3639L14.214 11.1989L15.304 7.6469L12.82 5.1639L9.235 6.2789L3.1 12.4139ZM10.524 9.9389C10.3807 9.80053 10.2665 9.63502 10.1878 9.45201C10.1092 9.269 10.0679 9.07218 10.0661 8.87301C10.0644 8.67384 10.1023 8.47632 10.1778 8.29197C10.2532 8.10763 10.3646 7.94015 10.5054 7.79931C10.6462 7.65847 10.8137 7.54709 10.9981 7.47167C11.1824 7.39625 11.3799 7.3583 11.5791 7.36003C11.7783 7.36176 11.9751 7.40314 12.1581 7.48175C12.3411 7.56037 12.5066 7.67464 12.645 7.8179C12.9135 8.10161 13.0607 8.47886 13.0554 8.86942C13.05 9.25999 12.8925 9.63307 12.6164 9.90933C12.3403 10.1856 11.9673 10.3432 11.5767 10.3488C11.1861 10.3543 10.8088 10.2072 10.525 9.9389H10.524ZM17.41 10.9609L18.192 8.0829C18.642 8.2349 18.947 8.4079 19.109 8.6009C19.3646 8.90566 19.4887 9.29946 19.454 9.69571C19.4194 10.092 19.2287 10.4582 18.924 10.7139C18.634 10.9579 18.129 11.0399 17.41 10.9609Z" fill="#21272A"/>
</g>
</svg>
